<?xml version="1.0" encoding="UTF-8"?>
<svg version="1.1" xmlns="http://www.w3.org/2000/svg" width="500" height="150">
<path d="M0 0 C0.99 0.33 1.98 0.66 3 1 C2.27012195 13.6 2.27012195 13.6 0.9375 18.25 C-0.17405094 22.69620377 -0.14276702 26.43145536 0 31 C3.3 30.34 6.6 29.68 10 29 C9.87625 28.154375 9.7525 27.30875 9.625 26.4375 C10.14589268 21.66265043 12.57226077 19.2234957 16 16 C19.01324195 14.49337903 21.68286377 14.82229627 25 15 C27 17 27 17 27.1875 20.25 C27.02059174 23.58816523 26.6392895 26.72364133 26 30 C29.57560077 28.65022693 32.8852134 27.23394405 36 25 C37.22659738 22.07669963 37.10980859 20.23935341 37 17 C41.43908976 16.06545479 45.46527914 16 50 16 C50.08333357 20.8333472 49.95261487 25.23692563 49 30 C50.0725 29.38125 51.145 28.7625 52.25 28.125 C54.79780984 26.6676321 57.35259355 25.27075509 60 24 C59.9375 26.75 59.9375 26.75 59 30 C54.27239357 33.59298089 51.04291008 34.60429101 45 34 C44.67 33.67 44.34 33.34 44 33 C44.09002398 30.97591245 44.24641038 28.95455713 44.4375 26.9375 C44.53933594 25.83277344 44.64117187 24.72804688 44.74609375 23.58984375 C44.87177734 22.30787109 44.87177734 22.30787109 45 21 C41.66752182 27.1999082 41.66752182 27.1999082 40 34 C38.35 34 36.7 34 35 34 C35 33.01 35 32.02 35 31 C34.13375 31.495 33.2675 31.99 32.375 32.5 C28.84121396 34.07057157 26.80902261 34.42322473 23 34 C21.515 33.01 21.515 33.01 20 32 C19.01 32.66 18.02 33.32 17 34 C13.86926251 34.45000334 10.72223347 34.37028046 7.5625 34.375 C6.27375977 34.41173828 6.27375977 34.41173828 4.95898438 34.44921875 C-1.38538806 34.47875035 -1.38538806 34.47875035 -4.59765625 31.9765625 C-5.06042969 31.32429688 -5.52320313 30.67203125 -6 30 C-6.886875 30.680625 -7.77375 31.36125 -8.6875 32.0625 C-12 34 -12 34 -14.6875 33.75 C-15.450625 33.5025 -16.21375 33.255 -17 33 C-19.9254644 32.7763932 -19.9254644 32.7763932 -22 34 C-25.5625 34.125 -25.5625 34.125 -29 34 C-29.33 33.67 -29.66 33.34 -30 33 C-29.90997602 30.97591245 -29.75358962 28.95455713 -29.5625 26.9375 C-29.46066406 25.83277344 -29.35882813 24.72804688 -29.25390625 23.58984375 C-29.17011719 22.73519531 -29.08632812 21.88054687 -29 21 C-32.33247818 27.1999082 -32.33247818 27.1999082 -34 34 C-35.65 34 -37.3 34 -39 34 C-39 32.68 -39 31.36 -39 30 C-40.19625 30.495 -41.3925 30.99 -42.625 31.5 C-46.21500097 32.83670249 -49.13436094 33.55223415 -53 33 C-53.66 32.01 -54.32 31.02 -55 30 C-55.845625 30.66 -56.69125 31.32 -57.5625 32 C-61.44734778 34.26027507 -63.58401256 34.43293994 -68 34 C-69 33 -69 33 -69.3125 29.4375 C-69.25304049 23.92758558 -67.0558898 19.45487649 -63.55078125 15.26953125 C-62 14 -62 14 -59 14 C-58.75 16.1875 -58.75 16.1875 -59 19 C-60.32810215 20.67083819 -61.66172696 22.33729713 -63 24 C-63.79690838 27.18762109 -63.79690838 27.18762109 -64 30 C-58.82379675 27.19006109 -54.900196 24.27192323 -52.6875 18.6875 C-52.460625 17.800625 -52.23375 16.91375 -52 16 C-50.68 16 -49.36 16 -48 16 C-48.33 20.29 -48.66 24.58 -49 29 C-42.87377531 26.79033067 -42.87377531 26.79033067 -37 24 C-37 21.69 -37 19.38 -37 17 C-32.56091024 16.06545479 -28.53472086 16 -24 16 C-23.91666643 20.8333472 -24.04738513 25.23692563 -25 30 C-20.15572267 27.94075828 -20.15572267 27.94075828 -16.9375 24.0234375 C-16.45146622 22.63115323 -16.00457699 21.22433426 -15.60546875 19.8046875 C-15 18 -15 18 -13 16 C-10.8359375 15.3671875 -10.8359375 15.3671875 -8.375 14.875 C-7.55773437 14.70742188 -6.74046875 14.53984375 -5.8984375 14.3671875 C-5.27195312 14.24601562 -4.64546875 14.12484375 -4 14 C-3.79503906 13.07316406 -3.59007812 12.14632812 -3.37890625 11.19140625 C-3.10949219 9.99386719 -2.84007812 8.79632813 -2.5625 7.5625 C-2.29566406 6.36753906 -2.02882813 5.17257813 -1.75390625 3.94140625 C-1 1 -1 1 0 0 Z M-11.1875 20.625 C-13.46170299 23.60499012 -13.3327958 25.33924624 -13 29 C-9.64084842 27.56036361 -7.28375062 25.87583411 -5 23 C-5.13641377 20.78141747 -5.13641377 20.78141747 -6 19 C-9.05279952 18.701838 -9.05279952 18.701838 -11.1875 20.625 Z M17.4375 22.125 C14.78365704 25.25517374 14.28084572 26.97454466 14 31 C18.47088058 28.55728128 18.47088058 28.55728128 22 25 C22.25069913 22.37429296 22.25069913 22.37429296 22 20 C19.7017579 19.78722138 19.7017579 19.78722138 17.4375 22.125 Z " fill="#000000" transform="translate(271,49)"/>
<path d="M0 0 C1.32 0.33 2.64 0.66 4 1 C3.34 5.95 2.68 10.9 2 16 C8.03768226 11.34935286 13.27198686 6.97222713 18 1 C18.99 1.33 19.98 1.66 21 2 C18.16680215 10.51458402 10.2657499 16.20769687 3 21 C4.73583196 25.89189008 7.46142688 29.56248753 10.5390625 33.6953125 C12 36 12 36 12 39 C8.56140181 38.72087372 7.3071956 38.34760044 4.98046875 35.71484375 C4.38878906 34.79832031 3.79710937 33.88179687 3.1875 32.9375 C2.58292969 32.01839844 1.97835937 31.09929687 1.35546875 30.15234375 C0.90816406 29.44207031 0.46085938 28.73179688 0 28 C-0.99 30.97 -1.98 33.94 -3 37 C-4.32 37 -5.64 37 -7 37 C-6.85831863 35.56208484 -6.71148957 34.1246763 -6.5625 32.6875 C-6.48128906 31.88699219 -6.40007812 31.08648437 -6.31640625 30.26171875 C-6 28 -6 28 -5 25 C-5.66 25.33 -6.32 25.66 -7 26 C-10 26.1875 -10 26.1875 -13 26 C-13.66 25.34 -14.32 24.68 -15 24 C-14.82018553 20.70340136 -14.58233024 18.02764161 -12.9375 15.125 C-9.79043191 13.29767014 -6.60348883 13.29536794 -3 13 C-2.86722656 12.14535156 -2.73445312 11.29070313 -2.59765625 10.41015625 C-2.42105469 9.30542969 -2.24445313 8.20070313 -2.0625 7.0625 C-1.88847656 5.96035156 -1.71445313 4.85820313 -1.53515625 3.72265625 C-1 1 -1 1 0 0 Z M-11 19 C-11 20.32 -11 21.64 -11 23 C-7.39007621 22.34414811 -7.39007621 22.34414811 -4 21 C-4.66 19.68 -5.32 18.36 -6 17 C-8.32357511 16.81509993 -8.32357511 16.81509993 -11 19 Z " fill="#000000" transform="translate(187,45)"/>
</svg>
